<?xml version="1.0" encoding="UTF-8" standalone="no"?>
<svg
   xmlns:dc="http://purl.org/dc/elements/1.1/"
   xmlns:cc="http://creativecommons.org/ns#"
   xmlns:rdf="http://www.w3.org/1999/02/22-rdf-syntax-ns#"
   xmlns:svg="http://www.w3.org/2000/svg"
   xmlns="http://www.w3.org/2000/svg"
   xmlns:sodipodi="http://sodipodi.sourceforge.net/DTD/sodipodi-0.dtd"
   xmlns:inkscape="http://www.inkscape.org/namespaces/inkscape"
   version="1.1"
   id="svg2"
   viewBox="0 0 800.00001 800.00001"
   height="800"
   width="800"
   inkscape:version="0.91 r13725"
   sodipodi:docname="drawing.svg">
  <sodipodi:namedview
     pagecolor="#ffffff"
     bordercolor="#666666"
     borderopacity="1"
     objecttolerance="10"
     gridtolerance="10"
     guidetolerance="10"
     inkscape:pageopacity="0"
     inkscape:pageshadow="2"
     inkscape:window-width="664"
     inkscape:window-height="480"
     id="namedview7"
     showgrid="false"
     inkscape:zoom="0.295"
     inkscape:cx="-91.525424"
     inkscape:cy="400"
     inkscape:window-x="0"
     inkscape:window-y="0"
     inkscape:window-maximized="0"
     inkscape:current-layer="svg2" />
  <defs
     id="defs4" />
  <metadata
     id="metadata7">
    <rdf:RDF>
      <cc:Work
         rdf:about="">
        <dc:format>image/svg+xml</dc:format>
        <dc:type
           rdf:resource="http://purl.org/dc/dcmitype/StillImage" />
        <dc:title />
      </cc:Work>
    </rdf:RDF>
  </metadata>
  <g
     transform="translate(0,-252.36216)"
     id="layer1"
     style="stroke-width:12;stroke-miterlimit:4;stroke-dasharray:none">
    <path
       id="path4138"
       d="M 689.33014,676.19673 C 678.21846,354.96822 551.94939,359.00883 480.22856,337.79563 344.95771,297.78594 142.83762,295.36922 133.74624,421.63829 c -9.09138,126.26907 284.22036,5.76696 274.76149,212.13203 -4.57001,99.70432 -274.97189,14.73056 -329.596889,172.56277 -15.347138,44.34367 22.699219,171.9762 110.267629,153.32782 81.52876,-17.36219 71.34668,-91.27975 165.93471,-52.58961 96.64151,39.53009 83.21823,84.39451 156.31197,84.40484 109.35281,-2.47891 121.36277,-46.24528 146.27896,-108.57706 15.8633,-51.45113 33.22447,-116.38949 31.62603,-206.70235 z"
       style="fill:none;fill-rule:evenodd;stroke:#000000;stroke-width:12;stroke-linecap:butt;stroke-linejoin:round;stroke-miterlimit:4;stroke-dasharray:none;stroke-opacity:1" />
  </g>
</svg>
