<?xml version="1.0" encoding="utf-8"?>
<!-- Generator: Adobe Illustrator 16.0.3, SVG Export Plug-In . SVG Version: 6.00 Build 0)  -->
<!DOCTYPE svg PUBLIC "-//W3C//DTD SVG 1.1//EN" "http://www.w3.org/Graphics/SVG/1.1/DTD/svg11.dtd">
<svg version="1.1" id="圖層_1" xmlns="http://www.w3.org/2000/svg" xmlns:xlink="http://www.w3.org/1999/xlink" x="0px" y="0px"
	 width="5669.29px" height="5669.29px" viewBox="0 0 5669.29 5669.29" enable-background="new 0 0 5669.29 5669.29"
	 xml:space="preserve">
<g>
	
		<sodipodi:namedview  units="cm" id="base" inkscape:pageshadow="2" inkscape:pageopacity="0.0" showguides="true" borderlayer="false" showgrid="false" inkscape:cy="6055.3938" inkscape:cx="3568.5707" inkscape:zoom="0.061871843" borderopacity="1.0" bordercolor="#666666" pagecolor="#ffffff" inkscape:window-maximized="1" inkscape:window-y="1" inkscape:window-x="0" inkscape:window-height="851" inkscape:window-width="1440" inkscape:guide-bbox="true" inkscape:pagecheckerboard="false" inkscape:current-layer="layer1" inkscape:document-units="mm">
		
			<sodipodi:guide  id="guide4540" inkscape:color="rgb(0,0,255)" inkscape:label="" inkscape:locked="false" orientation="1,0" position="199.99999,1599.3408">
			</sodipodi:guide>
		
			<sodipodi:guide  id="guide4542" inkscape:color="rgb(0,0,255)" inkscape:label="" inkscape:locked="false" orientation="0,1" position="-25.657874,1799.9999">
			</sodipodi:guide>
		
			<sodipodi:guide  id="guide4544" inkscape:color="rgb(0,0,255)" inkscape:label="" inkscape:locked="false" orientation="1,0" position="1799.9999,1257.2358">
			</sodipodi:guide>
		
			<sodipodi:guide  id="guide4546" inkscape:color="rgb(0,0,255)" inkscape:label="" inkscape:locked="false" orientation="0,1" position="774.01297,199.99999">
			</sodipodi:guide>
		
			<sodipodi:guide  id="guide4552" inkscape:color="rgb(0,0,255)" inkscape:label="" inkscape:locked="false" orientation="1,0" position="1569.4069,1069.0781">
			</sodipodi:guide>
	</sodipodi:namedview>
	<g id="layer1" transform="translate(0,1703)" inkscape:label="Layer 1" inkscape:groupmode="layer">
		
			<path id="path4538" sodipodi:nodetypes="ssssssaaaaaaas" inkscape:connector-curvature="0" fill="none" stroke="#000000" stroke-width="51.0236" d="
			M607.649,2231.513c830.353-2193.719,3179.769,248.822,3201.96-1550.284c11.293-915.583-841.994-813.411-1348.685-756.526
			C2102.729-35.085,1040.197,755.369,784.529-29.173c-115.855-355.516,89.881-1120.764,823.005-1114.242
			c1243.376,11.061,1993.265,0.691,2521.449-4.16c361.904-3.324,782.211,507.068,892.252,919.807
			c106.926,401.049-254.668,794.996-306.957,1206.748c-101.063,795.785,708.756,2047.408-8.551,2406.516
			c-383.881,192.186-604.547-769.998-1033.844-768.029c-378.908,1.738-527.756,704.203-906.241,686.219
			c-356.303-16.93-431.523-712.223-788.035-723.98c-358.063-11.809-487.016,746.918-837.65,673.406
			C764.14,3174.319,477.9,2574.298,607.649,2231.513z"/>
	</g>
</g>
</svg>
